<?xml version="1.0" encoding="UTF-8" standalone="no"?>
<svg
   id="_Слой_1"
   viewBox="0 0 168 207"
   version="1.1"
   width="168"
   height="207"
   xmlns="http://www.w3.org/2000/svg"
   xmlns:svg="http://www.w3.org/2000/svg">
  <defs
     id="defs1">
    <style
       id="style1">.cls-1{fill:#d8d8d8;}.cls-2{fill:#363636;}.cls-3{fill:#e7e0ca;}.cls-4{fill:#ff8827;}.cls-5{fill:none;}.cls-6{fill:#733fa0;}</style>
  </defs>
  <g
     id="g1">
    <path
       class="cls-6"
       d="m 21.1,196.83056 c 1.9,0 113.3,-17.3 113.3,-17.3 0,0 -3.9,28.8 -3.9,26.8 0,-2 -109.4,-9.5 -109.4,-9.5 z"
       id="path1" />
    <polygon
       class="cls-6"
       points="124.7,239.2 127.6,130.4 131.5,126.6 116.1,128.5 "
       id="polygon1"
       transform="translate(-116.1,-96.769436)" />
    <polygon
       class="cls-6"
       points="252.4,270.5 269.7,141.9 250.5,143.8 "
       id="polygon2"
       transform="translate(-116.1,-96.769436)" />
    <polygon
       class="cls-1"
       points="131.5,266.7 127.6,282 129.6,293.6 235.1,285.9 133.4,266.7 "
       id="polygon3"
       transform="translate(-116.1,-96.769436)" />
    <path
       class="cls-1"
       d="m 34.3,1.030564 c -7.7,7.8 -15.2,15.9 -24,22.6 l -0.7,0.4 V 189.13056 H 138.2 V 15.930564 c -0.05,-8.25 -6.75,-14.9 -15,-14.9 z"
       id="path3"
       style="fill:#ffffff" />
    <path
       class="cls-6"
       d="m 162.7,12.830564 c 0.4,-0.22 0.86,-0.29 1.3,-0.2 0.71,0.07 1.35,0.48 1.7,1.1 0.32,0.62 0.49,1.3 0.5,2 -0.08,1.64 -0.52,3.25 -1.3,4.7 l -0.2,0.2 h -0.4 c -0.75,-0.54 -1.45,-1.14 -2.1,-1.8 -0.8,-0.7 -3.4,-2.3 -3.3,-3.4 0.1,-1.1 2.8,-2.3 3.8,-2.6 z"
       id="path4" />
    <path
       class="cls-6"
       d="m 108,67.630564 c -2.3,3.7 -4.5,7.5 -6.5,11.4 -0.2,0.6 -0.5,1.2 -0.2,1.7 3.94,-2.44 7.69,-5.18 11.2,-8.2 0.2,-0.3 0.5,-0.5 0.6,-0.9 -0.03,-0.27 -0.1,-0.54 -0.2,-0.8 -0.88,-1.6 -2.15,-2.94 -3.7,-3.9 -0.19,-0.18 -0.44,-0.29 -0.7,-0.3 -0.3,0.1 -0.5,0.4 -0.7,0.6 -0.29,0.66 -0.4,1.39 -0.3,2.1"
       id="path5" />
    <path
       class="cls-6"
       d="m 157.9,15.530564 c -6.5,7.4 -13.4,14.5 -20.6,21.3 -3,2.8 -6.1,5.6 -8.9,8.6 -2.8,3 -3.5,4.1 -5.3,6.2 -4.6,5.4 -9.4,10.6 -14.4,15.6 1.5,1.86 3.21,3.54 5.1,5 6.8,-6.2 13,-13.1 19.5,-19.6 10.3,-10.5 21.6,-20 30.9,-31.5 -1.73,-2.25 -3.87,-4.15 -6.3,-5.6 z"
       id="path6" />
    <path
       class="cls-3"
       d="m 22.2,12.630564 c 4.4,-3.9 8.1,-8.7 13,-12 -1.8,4.1 -3.5,8.5 -3.1,13 0.14,1.38 0.38,2.75 0.7,4.1 l 1.8,7.8 c 0.15,0.91 0.45,1.79 0.9,2.6 1,1.7 3.2,2.8 3.3,4.8 -7.96,1.19 -16.07,-0.59 -22.8,-5 -2.6,-1.7 -5.5,-5.1 -2.8,-7.8 2.7,-2.7 6.1,-4.9 9,-7.5 z"
       id="path7" />
    <rect
       class="cls-4"
       x="36.200005"
       y="49.230564"
       width="26.9"
       height="26.870001"
       rx="8.3000002"
       ry="8.3000002"
       id="rect7" />
    <rect
       class="cls-4"
       x="36.200005"
       y="83.530563"
       width="26.9"
       height="26.870001"
       rx="8.3000002"
       ry="8.3000002"
       id="rect8" />
    <rect
       class="cls-4"
       x="34.599998"
       y="119.73056"
       width="26.9"
       height="26.870001"
       rx="8.3000002"
       ry="8.3000002"
       id="rect9" />
    <path
       class="cls-2"
       d="m 139.3,46.730564 -1.9,2.1 c 0.2,45.8 0.7,129.399996 0.8,139.299996 H 10.6 V 24.430564 l 24.3,-22.5 h 84.2 c 0.1,0 7.2,-0.6 12.4,4.1 5.2,4.7 5.8,8.9 5.8,16.1 v 14.1 c 0.53,-0.7 1.17,-1.31 1.9,-1.8 v -12.3 c 0,-7.8 -2.2,-13.7 -6.4,-17.5 -5.9,-5.3 -13.5,-4.6 -13.8,-4.6 H 34.2 l -25.5,23.6 V 190.03056 h 131.4 v -0.9 c 0,-1.2 -0.6,-94.499996 -0.8,-142.399996 z"
       id="path9" />
    <path
       class="cls-2"
       d="m 33.1,34.030564 c -8.05,-0.02 -15.82,-3.01 -21.8,-8.4 -0.93,-0.75 -1.45,-1.9 -1.4,-3.1 l 1.9,0.4 c 0,0.2 0.1,0.5 0.8,1.2 6.64,6.04 15.6,8.85 24.5,7.7 -5.94,-9.35 -6.84,-21.05 -2.4,-31.2 l 1.8,0.8 c -4.48,9.99 -3.3,21.61 3.1,30.5 l 0.9,1.2 -1.5,0.3 c -1.94,0.4 -3.92,0.6 -5.9,0.6 z"
       id="path10" />
    <path
       class="cls-2"
       d="m 49,77.730564 c -7.95,0 -14.4,-6.45 -14.4,-14.4 0,-7.95 6.45,-14.4 14.4,-14.4 7.95,0 14.4,6.45 14.4,14.4 v 0 c 0.06,7.9 -6.3,14.34 -14.2,14.4 z m 0,-26.8 c -6.9,-0.06 -12.54,5.5 -12.6,12.4 -0.06,6.9 5.5,12.54 12.4,12.6 6.9,0.06 12.54,-5.5 12.6,-12.4 v -0.2 c -0.05,-6.83 -5.57,-12.35 -12.4,-12.4 z"
       id="path11" />
    <path
       class="cls-2"
       d="m 49,112.33056 c -7.95,0 -14.4,-6.45 -14.4,-14.399996 0,-7.95 6.45,-14.4 14.4,-14.4 7.95,0 14.4,6.45 14.4,14.4 v 0 c 0,7.949996 -6.45,14.399996 -14.4,14.399996 z m 0,-26.899996 c -6.9,-0.06 -12.54,5.5 -12.6,12.4 -0.06,6.899996 5.5,12.539996 12.4,12.599996 6.9,0.06 12.54,-5.5 12.6,-12.399996 v -0.1 c 0,-6.86 -5.54,-12.45 -12.4,-12.5 z"
       id="path12" />
    <path
       class="cls-2"
       d="m 49,146.83056 c -7.95,0 -14.4,-6.45 -14.4,-14.4 0,-7.95 6.45,-14.4 14.4,-14.4 7.95,0 14.4,6.45 14.4,14.4 v 0 c 0.06,7.9 -6.3,14.34 -14.2,14.4 z m 0,-26.8 c -6.9,-0.06 -12.54,5.5 -12.6,12.4 -0.06,6.9 5.5,12.54 12.4,12.6 6.9,0.06 12.54,-5.5 12.6,-12.4 v -0.2 c -0.05,-6.83 -5.57,-12.35 -12.4,-12.4 z"
       id="path13" />
    <rect
       class="cls-2"
       x="75.799995"
       y="57.630558"
       width="26.9"
       height="1.92"
       id="rect13" />
    <rect
       class="cls-2"
       x="76.799995"
       y="100.83057"
       width="26.9"
       height="1.92"
       id="rect14" />
    <rect
       class="cls-2"
       x="76.799995"
       y="127.73056"
       width="26.9"
       height="1.92"
       id="rect15" />
    <rect
       class="cls-2"
       x="76.799995"
       y="137.23056"
       width="26.9"
       height="1.92"
       id="rect16" />
    <rect
       class="cls-2"
       x="76.799995"
       y="66.23056"
       width="13.4"
       height="1.92"
       id="rect17" />
    <rect
       class="cls-2"
       x="76.799995"
       y="93.130554"
       width="9.6000004"
       height="1.92"
       id="rect18" />
    <polygon
       class="cls-2"
       points="118.1,130.2 126.7,254.3 124.8,254.4 116.1,128.7 126.5,126.6 126.9,128.5 "
       id="polygon18"
       transform="translate(-116.1,-96.769436)" />
    <polygon
       class="cls-2"
       points="243.2,284.9 243.4,286.8 127.7,295.5 127.2,285.9 129.1,285.8 129.5,293.5 "
       id="polygon19"
       transform="translate(-116.1,-96.769436)" />
    <path
       class="cls-2"
       d="m 42,59.130564 5.5,8.3 c 0.33,0.44 0.96,0.53 1.4,0.2 6.65,-8.47 14.31,-16.09 22.8,-22.7 0.6,-0.4 -0.1,-1.2 -0.7,-0.9 -9.6,4.6 -16.9,14.2 -23.4,22.3 l 1.4,0.2 c -1.87,-2.83 -4.09,-5.42 -6.6,-7.7 -0.2,-0.2 -0.5,0 -0.4,0.3 z"
       id="path19" />
    <path
       class="cls-2"
       d="m 41.8,95.130564 c 2.43,2.01 4.55,4.37 6.3,6.999996 0.33,0.44 0.96,0.53 1.4,0.2 3.14,-4.019996 6.69,-7.709996 10.6,-10.999996 3.9,-3.3 9,-5.3 12.6,-8.7 0.31,-0.23 0.37,-0.67 0.13,-0.98 -0.19,-0.25 -0.54,-0.34 -0.83,-0.22 -4.7,0.9 -9.1,5 -12.7,8 -4.16,3.51 -7.91,7.46 -11.2,11.799996 h 1.5 c -2.01,-2.679996 -4.57,-4.889996 -7.5,-6.499996 -0.2,-0.1 -0.5,0.2 -0.3,0.4 z"
       id="path20" />
    <path
       class="cls-2"
       d="m 100.7,82.030564 c -0.37,0 -0.73,-0.14 -1,-0.4 -0.48,-0.51 -0.6,-1.27 -0.3,-1.9 l 7.7,-12.7 c 1.5,-1.4 33.7,-35.1 46,-48.1 0.6,-0.7 6.1,-7.1 10.6,-7.3 1.14,-0.13 2.27,0.32 3,1.2 0.9,0.8 1.7,2.4 0.6,5.1 -1.7,3.21 -4.05,6.04 -6.9,8.3 v 0 l -0.4,0.2 c -0.9,1.1 -2.9,3.1 -7,7.2 l -40,40 -11.4,8.1 c -0.25,0.22 -0.57,0.33 -0.9,0.3 z m 7.7,-13.7 -6.4,10.8 9.7,-6.9 46.9,-46.9 v 0 l 1.1,-1.1 h 0.1 c 1.7,-1.5 5.9,-5.6 6.1,-8.5 0.11,-0.58 -0.08,-1.18 -0.5,-1.6 -0.45,-0.38 -1.01,-0.59 -1.6,-0.6 -3.1,0.1 -7.8,4.9 -9.3,6.7 -13.2,13.8 -43.1,45.2 -46.1,48.1 z"
       id="path21" />
    <rect
       class="cls-2"
       x="19.593994"
       y="125.76026"
       width="1.9"
       height="6.8000002"
       transform="rotate(-49)"
       id="rect21" />
    <rect
       class="cls-2"
       x="96.702469"
       y="125.08074"
       width="1.9"
       height="8.5"
       transform="rotate(-46.5)"
       id="rect22" />
    <polygon
       class="cls-2"
       points="248.6,286.7 250.5,287 248.4,303.2 142.8,294.4 142.9,292.5 246.8,301.2 "
       id="polygon22"
       transform="translate(-116.1,-96.769436)" />
    <path
       class="cls-2"
       d="m 140.1,157.63056 h -1.9 c 0,-2.1 11.5,-95.299996 13.3,-110.599996 h -12.3 v -1.9 h 14.5 v 1.1 c -4.8,37.6 -13.5,109.299996 -13.6,111.399996 z"
       id="path22" />
    <line
       class="cls-5"
       x1="140.10001"
       y1="47.030567"
       x2="128.59999"
       y2="73.930557"
       id="line22" />
  </g>
</svg>
